PathFileType	4	(X/Y/Z)	C:\Users\WrightLab\Desktop\Jo\P1_boxCal22.trc
DataRate	CameraRate	NumFrames	NumMarkers	Units	OrigDataRate	OrigDataStartFrame	OrigNumFrames
100.00	100.00	       19	19	mm	100.00	247	       657
Frame#	Time	Headset_Front			Headset_Back			Headset_Left			Headset_Right			Left_Shoulder			Right_Shoulder			Sternum			C7			Left Elbow			Right Elbow			Left Wrist			Right Wrist			Left ASIS			Right ASIS			S2			Left Knee			Right Knee			Left Ankle			Right Ankle			
		X1	Y1	Z1	X2	Y2	Z2	X3	Y3	Z3	X4	Y4	Z4	X5	Y5	Z5	X6	Y6	Z6	X7	Y7	Z7	X8	Y8	Z8	X9	Y9	Z9	X10	Y10	Z10	X11	Y11	Z11	X12	Y12	Z12	X13	Y13	Z13	X14	Y14	Z14	X15	Y15	Z15	X16	Y16	Z16	X17	Y17	Z17	X18	Y18	Z18	X19	Y19	Z19	

247	2.460	-562.16675	1380.28442	-465.74704	-510.66101	1466.96899	-755.16180	-425.16724	1413.66455	-621.09729	-648.96283	1410.81494	-586.87750	-348.25742	1241.84167	-672.77472	-716.78729	1242.53455	-720.33374				-505.53540	1240.71436	-801.98187	-273.29132	921.52875	-711.85565	-787.82208	968.76141	-777.10913	-198.56583	740.48114	-632.93903	-853.34583	739.73499	-717.57367	-498.15088	863.14752	-519.34418	-681.88007	859.49664	-597.44226	-466.04971	858.24329	-852.18842	-258.85135	234.21776	80.72829	-686.83844	406.43674	-802.60858	-463.84088	442.36069	-506.60327	-501.44739	61.11208	-487.82068	
248	2.470	-564.54663	1381.87537	-455.92743	-511.87128	1467.89258	-744.29352	-426.60236	1414.91101	-610.17487	-650.13672	1413.20886	-577.26855	-350.19470	1242.38733	-660.46716	-718.25623	1245.06848	-710.53461				-506.96933	1241.96594	-791.77271	-277.40726	922.50732	-701.26373	-790.05377	971.36401	-767.56750	-201.24028	741.24786	-623.44910	-856.37225	742.22150	-709.78436	-499.13715	867.68182	-502.77539	-684.17578	862.16229	-586.55023	-467.96902	859.76282	-841.60980	-259.08380	235.28191	80.43530	-699.21826	407.92267	-785.02277	-466.69540	442.92224	-497.47610	-502.27017	59.77526	-486.37323	
249	2.480	-563.99738	1382.09009	-444.95267	-513.17487	1469.16711	-735.01245	-427.36661	1415.67078	-600.15723	-651.20618	1414.56116	-565.86938	-352.15298	1244.02979	-649.42053	-720.15466	1247.15979	-700.39673				-508.35663	1243.63635	-781.99432	-279.80936	923.69141	-690.52722	-792.56207	974.33911	-759.98602	-203.23158	742.25696	-613.67865	-860.11847	745.37854	-702.47705	-500.36716	869.25769	-491.45010	-686.16980	865.14319	-575.56702	-470.00131	860.86377	-831.34546	-259.08380	235.28191	80.43530	-711.21027	409.09213	-766.71112	-466.92120	444.24368	-486.98575	-501.22000	60.94052	-486.26801	
250	2.490	-565.99811	1383.76379	-435.18802	-514.48871	1470.83435	-724.37012	-428.89090	1416.20239	-590.90582	-652.13470	1416.65271	-555.91333	-354.47150	1245.74951	-639.65442	-722.29077	1248.66687	-689.71106	-581.74097	1145.14575	-535.81464	-510.11472	1245.00818	-772.26630	-282.33881	925.32501	-680.42554	-794.93958	976.33398	-750.01941	-205.39061	744.47577	-604.49463	-864.91620	747.82263	-693.96814	-502.69427	871.29724	-480.56851	-687.66943	866.30963	-564.88470	-471.45047	861.56885	-820.61401	-259.08380	235.28191	80.43530	-723.19904	411.17697	-748.76141	-467.23019	444.93048	-478.70596	-501.07617	62.16838	-486.19150	
251	2.500	-568.43536	1385.24756	-425.49814	-515.99713	1472.43896	-714.39996	-430.35376	1417.35168	-581.50189	-653.41565	1418.51660	-545.51044	-356.54031	1247.04346	-629.37927	-724.27484	1250.62073	-680.84143	-585.89001	1147.09924	-527.90625	-511.84573	1246.51721	-762.34106	-284.37421	926.78955	-669.55212	-798.15009	978.64349	-742.12122	-207.44809	745.94165	-593.55164	-868.37073	750.06293	-685.73834	-504.55222	872.81067	-468.49948	-688.85242	867.88251	-554.98975	-473.55609	861.85059	-810.22992	-259.08380	235.28191	80.43530	-734.43158	413.60178	-730.63702	-467.47540	444.89261	-469.71268	-501.46292	62.06977	-485.36600	
252	2.510	-567.84808	1385.57605	-415.32797	-517.27625	1474.76990	-704.52234	-432.07697	1417.81543	-570.60754	-655.18451	1421.14746	-535.32489	-358.99338	1248.29614	-617.51776	-726.08832	1252.42090	-672.16986				-513.61877	1248.14856	-752.68958	-286.00888	928.26636	-658.89417	-801.42236	980.80457	-733.26166	-210.16350	747.87231	-582.10516	-872.52301	752.05542	-677.08771	-505.86301	874.42279	-459.41068	-690.45032	868.89136	-544.45844	-475.44342	862.33331	-800.14948	-259.49326	234.45732	80.92233	-745.31476	417.03336	-711.59711	-466.66812	443.68085	-460.91928	-501.69611	61.88770	-485.31964	
253	2.520	-569.23572	1386.61316	-404.97702	-518.94135	1476.41577	-694.56580	-434.10062	1418.69238	-560.53748	-656.06799	1422.57983	-525.51074	-360.63379	1249.80908	-608.43652	-728.53394	1253.47083	-664.18829				-515.60736	1249.32202	-743.28656	-287.96854	929.94501	-647.20776	-804.17084	982.06543	-724.60516	-211.26027	749.85895	-571.19269	-878.12122	754.99902	-668.69891	-506.00470	875.25531	-449.41403	-691.18152	869.10315	-534.07629	-477.65659	862.66669	-789.59900	-259.08380	235.28191	80.43530	-755.10199	421.22711	-692.44519	-465.42914	442.84756	-454.21472	-502.20306	60.82885	-485.47165	
254	2.530	-571.36139	1388.06213	-396.24963	-520.70190	1478.21057	-685.24084	-435.18170	1418.96118	-551.48260	-657.62469	1424.04675	-515.57660	-363.06793	1251.80457	-600.55249	-730.73090	1254.70972	-655.57373	-592.19250	1150.72864	-499.59821	-517.41168	1251.16846	-734.70020	-288.73581	931.81354	-637.80298	-807.52478	984.17542	-716.90131	-214.09056	751.34021	-558.39374	-881.69739	757.01447	-660.30579	-506.90015	876.11963	-439.56183	-693.10400	871.25641	-524.17859	-479.96127	864.15417	-779.43542	-259.65164	234.67694	80.91065	-764.28430	426.31824	-671.34399	-463.52545	440.30414	-447.54822	-501.79053	60.54905	-485.40054	
255	2.540	-571.05975	1388.18799	-386.18454	-522.59430	1479.93665	-674.93542	-436.95300	1420.48535	-543.46680	-659.53973	1426.01245	-506.37894	-365.96570	1253.26062	-589.80011	-733.22919	1255.64844	-647.49377	-596.10522	1152.64233	-491.79160	-519.42712	1252.43396	-725.31024	-290.08240	933.46521	-628.00732	-810.24951	984.92212	-708.44257	-216.20724	753.28632	-546.26593	-886.02686	759.21167	-651.75793	-510.34457	877.07562	-433.75473	-695.47998	871.68115	-514.55548	-482.62772	864.86945	-769.15485	-259.08380	235.28191	80.43530	-773.25391	430.96823	-649.80524	-461.35574	438.85300	-443.09872	-501.72427	60.57166	-485.39447	
256	2.550	-575.05261	1390.33118	-378.60672	-524.54401	1482.27502	-666.26996	-439.10486	1421.75342	-534.05145	-661.53265	1427.97205	-496.57742	-367.82043	1255.02722	-580.22369	-735.35089	1256.88806	-640.33466				-521.48883	1253.95227	-716.41473	-291.76215	935.37158	-617.88861	-813.50311	986.18854	-700.97522	-218.41200	755.23004	-534.96149	-890.52856	760.89795	-643.21918	-512.30164	878.90662	-424.18188	-695.71759	872.88843	-503.86368	-485.26492	866.67145	-759.49567	-259.27396	234.80318	80.69703	-781.44336	435.38113	-629.91864	-459.00644	436.19595	-440.06421	-501.80630	60.41953	-485.75436	
257	2.560	-576.62787	1392.35559	-368.97464	-526.75092	1484.03284	-656.73578	-440.36819	1422.68286	-525.00037	-662.77649	1429.84058	-487.38651	-370.12277	1257.19482	-572.21716	-737.90930	1257.92078	-632.49158				-523.61493	1255.44812	-707.40430	-293.06537	936.76886	-607.45013	-816.13458	987.07043	-692.74042	-220.69099	757.21710	-522.47736	-893.57806	761.93524	-633.65857	-512.71075	880.62689	-414.91544	-698.14960	873.59082	-493.83932	-487.14359	868.00372	-749.80225	-259.08380	235.28191	80.43530	-789.53235	439.60583	-609.73383	-456.32602	434.63873	-437.60056	-501.75674	60.47117	-485.77274	
258	2.570	-577.74683	1393.10669	-360.20273	-529.00995	1486.43274	-648.18878	-442.98840	1424.21179	-516.71906	-664.51141	1431.65674	-477.35410	-372.26910	1259.00952	-563.78955	-740.57019	1258.95837	-624.80609				-525.86591	1257.21997	-699.64746	-294.14508	938.74072	-597.15411	-818.77203	988.25586	-684.97809	-223.65625	758.84344	-509.34149	-897.00763	764.02325	-625.08679	-514.50659	882.84393	-406.75977	-701.12427	876.02551	-483.85510	-490.54913	869.42297	-740.50385	-259.08380	235.28191	80.43530	-797.27380	444.83832	-589.25702	-453.75375	433.37112	-435.47424	-500.31909	62.29546	-488.92456	
259	2.580	-579.66272	1394.17017	-351.28531	-531.44788	1488.16968	-638.75494	-445.27002	1425.61670	-507.90347	-666.95807	1433.69592	-469.04816	-374.60815	1261.01892	-555.17255	-742.89246	1259.90430	-616.72736				-528.21021	1258.90759	-691.08893	-295.25735	940.93134	-588.11639	-820.81366	989.46161	-677.56921	-225.89703	761.40283	-497.02988	-900.49774	765.27600	-616.94403	-515.62262	884.91479	-398.46832	-702.95166	878.06610	-474.13934	-492.70322	871.29681	-731.18420	-259.65164	234.67694	80.91065	-803.84924	449.91138	-569.84418	-451.42593	432.80801	-435.29074	-500.23923	62.38847	-490.57880	
260	2.590	-581.36975	1396.07947	-341.79178	-533.86609	1490.30908	-630.69110	-446.88687	1427.63391	-500.14462	-668.70551	1435.54114	-459.57440	-376.74496	1263.19946	-547.95221	-745.16113	1261.30469	-609.30475				-530.65253	1260.38391	-682.48181	-296.88022	942.51563	-577.65717	-822.60114	990.25458	-669.57220	-229.18318	763.63336	-483.75122	-904.32825	767.85339	-608.13171	-516.02441	886.66199	-389.51199	-704.28210	880.02917	-463.55032	-495.68826	873.26379	-722.67139	-259.95255	234.01123	81.29080	-810.06372	456.21915	-550.62756	-449.91559	432.74191	-435.10861	-499.78104	63.73886	-492.21564	
261	2.600	-582.76343	1395.82434	-341.01553	-536.40381	1491.97742	-621.94257	-448.44470	1429.61523	-490.91116	-670.56866	1436.22559	-450.83603	-379.15601	1265.28650	-539.33868	-747.57666	1262.43188	-601.36731				-533.04132	1262.09961	-673.84869	-298.57224	944.82794	-568.06805	-824.69806	991.88916	-663.14178	-232.13727	766.20184	-471.23654	-907.20471	769.27209	-599.51373	-517.02765	889.88354	-381.40781	-706.15692	881.65790	-453.02231	-498.60309	874.96906	-713.69812	-259.95255	234.01123	81.29080	-815.05518	461.84964	-531.74231	-448.90744	432.63660	-435.62997	-499.41739	64.05898	-493.04678	
262	2.610	-584.12244	1399.21948	-324.59848	-539.03253	1493.37231	-612.89380	-450.99341	1431.29749	-483.65717	-672.75909	1437.93054	-441.90720	-380.57120	1267.13049	-531.45917	-750.15314	1263.55334	-592.42395				-535.59686	1263.26343	-665.08356	-300.33868	946.70953	-557.76239	-826.19403	992.89832	-655.42633	-234.96153	768.50519	-458.92566	-910.01404	770.68604	-591.15826	-518.36700	892.53656	-372.28244	-708.29688	884.12866	-443.37225	-502.04199	877.05444	-705.22150	-259.49326	234.45732	80.92233	-819.85132	467.35239	-514.35657	-448.55157	432.50964	-434.90897	-499.27490	64.26916	-493.08267	
263	2.620	-586.93427	1400.04309	-319.90173	-541.61847	1494.91907	-604.76892	-453.62454	1432.70349	-475.44812	-674.63654	1439.51270	-432.99289	-382.52487	1269.37659	-524.25244	-752.13092	1264.74109	-584.39026				-538.22528	1264.46631	-656.65912	-301.65402	948.64789	-548.85345	-827.36511	994.27020	-647.98468	-238.23067	770.83441	-446.29770	-911.97168	771.91736	-582.32880	-520.30750	894.14172	-366.13168	-710.87061	886.84222	-432.70932	-504.81284	878.91864	-696.93817	-259.08380	235.28191	80.43530	-821.90833	472.08020	-496.33020	-448.76529	431.88922	-433.86484	-498.47272	65.10062	-494.41306	
264	2.630	-587.17358	1401.56055	-307.53421	-544.18634	1496.22021	-596.33234	-455.27255	1433.96375	-466.25446	-677.25311	1440.77405	-424.69269	-385.30887	1270.58289	-515.17285	-754.43262	1266.05042	-575.02380	-614.62677	1170.41345	-410.60126	-540.77380	1265.12720	-648.36377	-303.94815	950.58130	-539.14850	-828.91394	995.42700	-640.67828	-241.24429	772.92889	-433.65048	-914.31049	772.63861	-573.53003	-520.83887	896.32617	-357.87115	-711.08221	888.67755	-422.83679	-508.32114	879.89520	-688.87897	-259.08380	235.28191	80.43530	-824.18933	476.83282	-480.20807	-448.69061	432.21518	-432.36212	-498.53323	65.16633	-495.14648	
265	2.640	-589.08466	1404.03735	-298.28473	-546.82458	1497.32080	-588.20825	-457.76950	1435.57776	-458.99539	-678.15411	1441.88647	-415.24112	-386.97559	1271.60950	-506.86292	-756.37585	1266.72095	-565.85315				-543.21869	1266.19922	-640.25745	-305.44318	952.13098	-530.17438	-830.39233	996.63477	-632.43451	-244.46753	775.26404	-421.27286	-917.08130	774.15125	-565.12000	-521.90009	896.97180	-349.59698	-711.68872	890.43311	-412.24094	-512.38666	881.22821	-680.37946	-259.65164	234.67694	80.91065	-826.27087	481.58173	-465.04120	-448.60004	431.84894	-430.96515	-498.86087	65.35226	-495.67572	
